<svg width="390" height="604" viewBox="0 0 390 604" fill="none" xmlns="http://www.w3.org/2000/svg">
<g filter="url(#filter0_f)">
<circle cx="61" cy="153" r="120" fill="#FFF0C8"/>
</g>
<g filter="url(#filter1_f)">
<circle cx="257" cy="72" r="99" fill="#C8FFF2"/>
</g>
<g filter="url(#filter2_f)">
<rect x="258" y="106" width="196" height="197" fill="#C8DEFF"/>
</g>
<g filter="url(#filter3_f)">
<path d="M195 223L311.047 424H78.9526L195 223Z" fill="#FFC8E2"/>
</g>
<path fill-rule="evenodd" clip-rule="evenodd" d="M195 474C350.192 474 476 348.192 476 193C476 40.4014 354.362 -83.787 202.755 -87.8951C201.871 -87.9215 200.986 -87.9429 200.1 -87.9594C199.129 -87.9864 198.155 -88 197.178 -88C197.064 -88 196.95 -87.9998 196.836 -87.9994C196.708 -87.9998 196.58 -88 196.452 -88C196.348 -88 196.245 -87.9999 196.141 -87.9996C196.003 -87.9999 195.864 -88 195.726 -88L195.489 -87.9998L195.45 -87.9998L195.418 -87.9998L195.381 -87.9997L195 -88C39.808 -88 -86 37.808 -86 193C-86 348.192 39.808 474 195 474ZM180.029 -84.4224C184.986 -84.6856 189.977 -84.8189 195 -84.8189C201.794 -84.8189 208.531 -84.575 215.202 -84.0956C234.052 -76.8505 247.43 -58.5741 247.43 -37.1731C247.43 -9.42001 224.931 13.0783 197.178 13.0783C169.425 13.0783 146.927 -9.42001 146.927 -37.1731C146.927 -58.9037 160.72 -77.4126 180.029 -84.4224ZM178.144 -84.3159C159.503 -76.7824 146.351 -58.5137 146.351 -37.1731C146.351 -9.10222 169.107 13.6537 197.178 13.6537C225.249 13.6537 248.005 -9.10222 248.005 -37.1731C248.005 -58.1793 235.262 -76.2091 217.085 -83.9539C217.965 -83.8847 218.844 -83.8114 219.722 -83.734C250.741 -74.1259 273.273 -45.211 273.273 -11.0336C273.273 30.9926 239.204 65.0615 197.178 65.0615C155.152 65.0615 121.083 30.9926 121.083 -11.0336C121.083 -45.7709 144.359 -75.0718 176.166 -84.1905C176.825 -84.2346 177.484 -84.2764 178.144 -84.3159ZM120.212 -11.0336C120.212 -44.375 141.412 -72.7649 171.068 -83.4581C127.419 -71.9257 95.2396 -32.1678 95.2396 15.1059C95.2396 71.4051 140.879 117.045 197.178 117.045C253.478 117.045 299.117 71.4051 299.117 15.1059C299.117 -32.0322 267.122 -71.6975 223.664 -83.3581L223.525 -83.3723C253.057 -72.6137 274.145 -44.2863 274.145 -11.0336C274.145 31.4738 239.686 65.9328 197.178 65.9328C154.671 65.9328 120.212 31.4738 120.212 -11.0336ZM162.174 -81.906C107.847 -66.9062 67.952 -17.1263 67.952 41.9716C67.952 112.94 125.483 170.472 196.452 170.472C267.421 170.472 324.952 112.94 324.952 41.9716C324.952 -14.7081 288.256 -62.8167 237.325 -79.8917C274.324 -64.2362 300.284 -27.5967 300.284 15.1059C300.284 72.0498 254.122 118.212 197.178 118.212C140.234 118.212 94.0724 72.0498 94.0724 15.1059C94.0724 -29.5491 122.46 -67.5737 162.174 -81.906ZM66.4806 41.9716C66.4806 -13.2938 100.974 -60.5028 149.606 -79.3015C85.6856 -59.6173 39.2286 -0.0892487 39.2286 70.2894C39.2286 156.721 109.295 226.787 195.726 226.787C282.157 226.787 352.224 156.721 352.224 70.2894C352.224 2.71559 309.396 -54.8553 249.403 -76.76C294.792 -56.4871 326.424 -10.9517 326.424 41.9716C326.424 113.753 268.234 171.943 196.452 171.943C124.671 171.943 66.4806 113.753 66.4806 41.9716ZM129.371 -73.4625C61.4773 -46.9251 13.385 19.1356 13.385 96.4289C13.385 197.133 95.0219 278.77 195.726 278.77C296.43 278.77 378.067 197.133 378.067 96.4289C378.067 19.1355 329.975 -46.9253 262.081 -73.4626C316.357 -48.3671 354.015 6.56339 354.015 70.2894C354.015 157.71 283.147 228.579 195.726 228.579C108.305 228.579 37.4367 157.71 37.4367 70.2894C37.4367 6.56349 75.0946 -48.367 129.371 -73.4625ZM399.604 118.212C399.604 36.7802 351.862 -33.5009 282.842 -66.1689C340.768 -35.0687 380.155 26.0804 380.155 96.4289C380.155 198.286 297.583 280.858 195.726 280.858C93.8688 280.858 11.2972 198.286 11.2972 96.4289C11.2972 26.0804 50.6845 -35.0687 108.61 -66.1689C39.5898 -33.5008 -8.15131 36.7803 -8.15131 118.212C-8.15131 230.81 83.1277 322.089 195.726 322.089C308.324 322.089 399.604 230.81 399.604 118.212ZM98.8058 -63.8502C21.1861 -27.4005 -32.5592 51.4729 -32.5592 142.899C-32.5592 268.978 69.6476 371.185 195.726 371.185C321.805 371.185 424.011 268.978 424.011 142.899C424.011 51.4731 370.266 -27.4003 292.647 -63.8501C357.679 -29.1581 401.938 39.3582 401.938 118.212C401.938 232.1 309.614 324.424 195.726 324.424C81.8384 324.424 -10.4858 232.1 -10.4858 118.212C-10.4858 39.3581 33.7738 -29.1583 98.8058 -63.8502ZM448.411 168.313C448.411 71.1976 393.782 -13.1582 313.577 -55.7012C381.267 -15.4471 426.625 58.429 426.625 142.899C426.625 270.421 323.248 373.798 195.726 373.798C68.204 373.798 -35.1731 270.421 -35.1731 142.899C-35.1731 53.7263 15.3767 -23.6401 89.3841 -62.1078C2.1611 -22.0625 -58.411 66.0514 -58.411 168.313C-58.411 308.268 55.045 421.724 195 421.724C334.955 421.724 448.411 308.268 448.411 168.313ZM325.735 -52.1983C413.262 -5.4328 472.819 86.8285 472.819 193C472.819 346.435 348.435 470.819 195 470.819C41.5649 470.819 -82.8189 346.435 -82.8189 193C-82.8189 86.8285 -23.2623 -5.43283 64.2653 -52.1983C-10.9226 -7.52536 -61.3127 74.509 -61.3127 168.313C-61.3127 309.87 53.4424 424.625 195 424.625C336.558 424.625 451.313 309.87 451.313 168.313C451.313 74.5091 400.923 -7.52533 325.735 -52.1983Z" fill="url(#paint0_linear)"/>
<defs>
<filter id="filter0_f" x="-239" y="-147" width="600" height="600" filterUnits="userSpaceOnUse" color-interpolation-filters="sRGB">
<feFlood flood-opacity="0" result="BackgroundImageFix"/>
<feBlend mode="normal" in="SourceGraphic" in2="BackgroundImageFix" result="shape"/>
<feGaussianBlur stdDeviation="90" result="effect1_foregroundBlur"/>
</filter>
<filter id="filter1_f" x="-22" y="-207" width="558" height="558" filterUnits="userSpaceOnUse" color-interpolation-filters="sRGB">
<feFlood flood-opacity="0" result="BackgroundImageFix"/>
<feBlend mode="normal" in="SourceGraphic" in2="BackgroundImageFix" result="shape"/>
<feGaussianBlur stdDeviation="90" result="effect1_foregroundBlur"/>
</filter>
<filter id="filter2_f" x="78" y="-74" width="556" height="557" filterUnits="userSpaceOnUse" color-interpolation-filters="sRGB">
<feFlood flood-opacity="0" result="BackgroundImageFix"/>
<feBlend mode="normal" in="SourceGraphic" in2="BackgroundImageFix" result="shape"/>
<feGaussianBlur stdDeviation="90" result="effect1_foregroundBlur"/>
</filter>
<filter id="filter3_f" x="-101.047" y="43" width="592.095" height="561" filterUnits="userSpaceOnUse" color-interpolation-filters="sRGB">
<feFlood flood-opacity="0" result="BackgroundImageFix"/>
<feBlend mode="normal" in="SourceGraphic" in2="BackgroundImageFix" result="shape"/>
<feGaussianBlur stdDeviation="90" result="effect1_foregroundBlur"/>
</filter>
<linearGradient id="paint0_linear" x1="195" y1="-88" x2="195" y2="474" gradientUnits="userSpaceOnUse">
<stop stop-color="white"/>
<stop offset="1" stop-color="white" stop-opacity="0"/>
</linearGradient>
</defs>
</svg>
