<svg width="16" height="16" viewBox="0 0 16 16" fill="none" xmlns="http://www.w3.org/2000/svg">
<path d="M14 7.52733C14 10.5533 11.3014 12.982 8.00003 12.982C7.57269 12.982 7.15669 12.94 6.75403 12.8627" stroke="#949BA5" stroke-width="1.2" stroke-linecap="round" stroke-linejoin="round"/>
<path d="M4.39933 11.884C2.94667 10.8907 2 9.31599 2 7.52733" stroke="#949BA5" stroke-width="1.2" stroke-linecap="round" stroke-linejoin="round"/>
<path d="M4.39938 11.884C4.39871 12.4533 4.40004 13.2213 4.40004 14.0273" stroke="#949BA5" stroke-width="1.2" stroke-linecap="round" stroke-linejoin="round"/>
<path d="M2 7.52733C2 4.50133 4.69867 2.07333 8 2.07333C11.3013 2.07333 14 4.502 14 7.528" stroke="#949BA5" stroke-width="1.2" stroke-linecap="round" stroke-linejoin="round"/>
<path d="M6.75336 12.86L4.40002 14.0267" stroke="#949BA5" stroke-width="1.2" stroke-linecap="round" stroke-linejoin="round"/>
<path d="M8.11781 7.5488C8.1829 7.61388 8.1829 7.71941 8.11781 7.7845C8.05272 7.84958 7.9472 7.84958 7.88211 7.7845C7.81702 7.71941 7.81702 7.61388 7.88211 7.5488C7.9472 7.48371 8.05272 7.48371 8.11781 7.5488" stroke="#949BA5" stroke-width="1.2" stroke-linecap="round" stroke-linejoin="round"/>
<path d="M10.7846 7.5488C10.8496 7.61388 10.8496 7.71941 10.7846 7.7845C10.7195 7.84958 10.6139 7.84958 10.5489 7.7845C10.4838 7.71941 10.4838 7.61388 10.5489 7.5488C10.6139 7.48371 10.7195 7.48371 10.7846 7.5488" stroke="#949BA5" stroke-width="1.2" stroke-linecap="round" stroke-linejoin="round"/>
<path d="M5.45118 7.5488C5.51627 7.61388 5.51627 7.71941 5.45118 7.7845C5.3861 7.84958 5.28057 7.84958 5.21548 7.7845C5.15039 7.71941 5.15039 7.61388 5.21548 7.5488C5.28057 7.48371 5.3861 7.48371 5.45118 7.5488" stroke="#949BA5" stroke-width="1.2" stroke-linecap="round" stroke-linejoin="round"/>
</svg>
