<svg width="48" height="48" viewBox="0 0 48 48" fill="none" xmlns="http://www.w3.org/2000/svg">
<path d="M23.997 29.5023C23.7219 29.5023 23.4968 29.7274 23.4998 30.0025C23.4998 30.2776 23.7249 30.5027 24 30.5027C24.2751 30.5027 24.5002 30.2776 24.5002 30.0025C24.5002 29.7274 24.2751 29.5023 23.997 29.5023" stroke="#212226" stroke-width="1.5" stroke-linecap="round" stroke-linejoin="round"/>
<path d="M23.997 23.4998C23.7219 23.4998 23.4968 23.7249 23.4998 24C23.4998 24.2751 23.7249 24.5002 24 24.5002C24.2751 24.5002 24.5002 24.2751 24.5002 24C24.5002 23.7249 24.2751 23.4998 23.997 23.4998" stroke="#212226" stroke-width="1.5" stroke-linecap="round" stroke-linejoin="round"/>
<path d="M23.997 17.4973C23.7219 17.4973 23.4968 17.7224 23.4998 17.9975C23.4998 18.2726 23.7249 18.4977 24 18.4977C24.2751 18.4977 24.5002 18.2726 24.5002 17.9975C24.5002 17.7224 24.2751 17.4973 23.997 17.4973" stroke="#212226" stroke-width="1.5" stroke-linecap="round" stroke-linejoin="round"/>
</svg>
