<svg width="24" height="24" viewBox="0 0 24 24" fill="none" xmlns="http://www.w3.org/2000/svg">
<path fill-rule="evenodd" clip-rule="evenodd" d="M20.5414 14.5991L20.0796 14.8657C19.1511 15.4018 18.579 16.3925 18.579 17.4648V17.998C18.579 19.0702 18.0069 20.0609 17.0784 20.597C16.1498 21.1331 15.0058 21.1331 14.0772 20.5971L13.6154 20.3304C12.6868 19.7943 11.5428 19.7943 10.6142 20.3304L10.1524 20.5971C9.22383 21.1331 8.07981 21.1331 7.15125 20.597C6.22269 20.0609 5.65066 19.0702 5.65061 17.998V17.4648C5.65059 16.3925 5.07855 15.4018 4.14999 14.8657L3.68825 14.5991C2.75969 14.0629 2.18768 13.0722 2.18768 11.9999C2.18768 10.9277 2.75969 9.93696 3.68825 9.40083L4.15003 9.13423C5.07859 8.59812 5.65063 7.60736 5.65065 6.53514V6.00192C5.6507 4.92972 6.22273 3.93898 7.15129 3.40288C8.07985 2.86678 9.22387 2.86676 10.1524 3.40284L10.6143 3.66946C11.5428 4.20557 12.6869 4.20557 13.6154 3.66946L14.0773 3.40284C15.0058 2.86676 16.1499 2.86678 17.0784 3.40288C18.007 3.93898 18.579 4.92972 18.5791 6.00192V6.53514C18.5791 7.60736 19.1511 8.59812 20.0797 9.13423L20.5415 9.40083C21.47 9.93696 22.042 10.9277 22.042 12C22.042 13.0722 21.47 14.0629 20.5414 14.5991Z" stroke="#949BA5" stroke-width="1.5" stroke-linecap="round" stroke-linejoin="round"/>
<circle cx="12" cy="12" r="3.00125" stroke="#949BA5" stroke-width="1.5" stroke-linecap="round" stroke-linejoin="round"/>
</svg>
