<svg width="25" height="24" viewBox="0 0 25 24" fill="none" xmlns="http://www.w3.org/2000/svg">
<path d="M14.03 7.52L9.96997 10.56" stroke="#5D5FEF" stroke-width="1.5" stroke-linecap="round" stroke-linejoin="round"/>
<path d="M16.9048 4.64216C17.6984 5.4357 17.6984 6.7223 16.9048 7.51584C16.1113 8.30938 14.8247 8.30938 14.0311 7.51584C13.2376 6.72229 13.2376 5.4357 14.0311 4.64216C14.8247 3.84861 16.1113 3.84861 16.9048 4.64216" stroke="#5D5FEF" stroke-width="1.5" stroke-linecap="round" stroke-linejoin="round"/>
<path d="M14.03 16.48L9.96997 13.44" stroke="#5D5FEF" stroke-width="1.5" stroke-linecap="round" stroke-linejoin="round"/>
<path d="M16.9048 16.4842C17.6984 17.2777 17.6984 18.5643 16.9048 19.3579C16.1113 20.1514 14.8247 20.1514 14.0311 19.3579C13.2376 18.5643 13.2376 17.2777 14.0311 16.4842C14.8247 15.6907 16.1113 15.6907 16.9048 16.4842" stroke="#5D5FEF" stroke-width="1.5" stroke-linecap="round" stroke-linejoin="round"/>
<path d="M9.96542 10.5646C10.7582 11.3574 10.7582 12.6427 9.96542 13.4354C9.17266 14.2282 7.88733 14.2282 7.09457 13.4354C6.30181 12.6427 6.30181 11.3574 7.09457 10.5646C7.88734 9.77183 9.17266 9.77183 9.96542 10.5646" stroke="#5D5FEF" stroke-width="1.5" stroke-linecap="round" stroke-linejoin="round"/>
</svg>
